<?xml version="1.0" encoding="UTF-8" standalone="no"?><!DOCTYPE svg PUBLIC "-//W3C//DTD SVG 1.1//EN" "http://www.w3.org/Graphics/SVG/1.1/DTD/svg11.dtd"><svg width="99px" height="99px" version="1.1" xmlns="http://www.w3.org/2000/svg" xmlns:xlink="http://www.w3.org/1999/xlink" xml:space="preserve" xmlns:serif="http://www.serif.com/" style="fill-rule:evenodd;clip-rule:evenodd;stroke-linejoin:round;stroke-miterlimit:2;"><g transform="matrix(1,0,0,1,-54.463,-97.3592)"><g transform="matrix(1,0,0,1,-237.12,-9.00676)"><g transform="matrix(4.16667,0,0,4.16667,290.75,105.533)"><path d="M23,5.427l0,13.146c0,2.443 -1.984,4.427 -4.427,4.427l-13.146,0c-2.443,0 -4.427,-1.984 -4.427,-4.427l0,-13.146c0,-2.443 1.984,-4.427 4.427,-4.427l13.146,0c2.443,0 4.427,1.984 4.427,4.427Z" style="fill:none;stroke:white;stroke-width:1.6px;"/></g><g transform="matrix(4.16667,0,0,4.16667,290.75,105.533)"><path d="M6,5l0,14l12,0l0,-9l-5,-5l-7,0Z" style="fill:none;fill-rule:nonzero;stroke:white;stroke-width:1.6px;"/><path d="M9,9l4,0" style="fill:none;fill-rule:nonzero;stroke:white;stroke-width:1.6px;"/><path d="M9,12l6,0" style="fill:none;fill-rule:nonzero;stroke:white;stroke-width:1.6px;"/><path d="M9,15l6,0" style="fill:none;fill-rule:nonzero;stroke:white;stroke-width:1.6px;"/></g></g></g></svg>